<svg xmlns="http://www.w3.org/2000/svg" viewBox="0 0 100 100">
    <path fill="currentColor" d="
    M42 0
    C42 0 58 0 58 0
    L60 34
    C60 35 61.5 35.5 62.5 35.2
    L94 20
    C94 20 98 30 98 30
    L68 43
    C67 43.5 67 47.5 68 48
    L98 66
    C98 66 94 76 94 76
    L62.5 60.8
    C61.5 60.5 60 61 60 62
    L58 98
    C58 98 42 98 42 98
    L40 62
    C40 61 38.5 60.5 37.5 60.8
    L6 76
    C6 76 2 66 2 66
    L32 48
    C33 47.5 33 43.5 32 43
    L2 30
    C2 30 6 20 6 20
    L37.5 35.2
    C38.5 35.5 40 35 40 34
    Z"
    />
</svg>